<svg xmlns="http://www.w3.org/2000/svg" viewBox="0 0 260 160">
  <rect width="260" height="160" fill="#162033"/>
  <!-- 6 cols x 4 rows, cell=26px, gap=4px, left=42, top=22 -->
  <!-- Row 0 -->
  <rect x="42"  y="22" width="26" height="26" rx="4" fill="#1e2f47" stroke="#2a3f5a" stroke-width="1.5"/>
  <rect x="72"  y="22" width="26" height="26" rx="4" fill="#1e2f47" stroke="#2a3f5a" stroke-width="1.5"/>
  <rect x="102" y="22" width="26" height="26" rx="4" fill="#1e2f47" stroke="#2a3f5a" stroke-width="1.5"/>
  <rect x="132" y="22" width="26" height="26" rx="4" fill="#1e2f47" stroke="#2a3f5a" stroke-width="1.5"/>
  <rect x="162" y="22" width="26" height="26" rx="4" fill="#1e2f47" stroke="#2a3f5a" stroke-width="1.5"/>
  <rect x="192" y="22" width="26" height="26" rx="4" fill="#1e2f47" stroke="#2a3f5a" stroke-width="1.5"/>
  <!-- Row 1 -->
  <rect x="42"  y="52" width="26" height="26" rx="4" fill="#1e2f47" stroke="#2a3f5a" stroke-width="1.5"/>
  <rect x="72"  y="52" width="26" height="26" rx="4" fill="#1e2f47" stroke="#2a3f5a" stroke-width="1.5"/>
  <rect x="102" y="52" width="26" height="26" rx="4" fill="#1e2f47" stroke="#2a3f5a" stroke-width="1.5"/>
  <rect x="132" y="52" width="26" height="26" rx="4" fill="#1e2f47" stroke="#2a3f5a" stroke-width="1.5"/>
  <rect x="162" y="52" width="26" height="26" rx="4" fill="#1e2f47" stroke="#2a3f5a" stroke-width="1.5"/>
  <rect x="192" y="52" width="26" height="26" rx="4" fill="#1e2f47" stroke="#2a3f5a" stroke-width="1.5"/>
  <!-- Row 2 -->
  <rect x="42"  y="82" width="26" height="26" rx="4" fill="#1e2f47" stroke="#2a3f5a" stroke-width="1.5"/>
  <rect x="72"  y="82" width="26" height="26" rx="4" fill="#1e2f47" stroke="#2a3f5a" stroke-width="1.5"/>
  <rect x="102" y="82" width="26" height="26" rx="4" fill="#1e2f47" stroke="#2a3f5a" stroke-width="1.5"/>
  <rect x="132" y="82" width="26" height="26" rx="4" fill="#1e2f47" stroke="#2a3f5a" stroke-width="1.5"/>
  <rect x="162" y="82" width="26" height="26" rx="4" fill="#1e2f47" stroke="#2a3f5a" stroke-width="1.5"/>
  <rect x="192" y="82" width="26" height="26" rx="4" fill="#1e2f47" stroke="#2a3f5a" stroke-width="1.5"/>
  <!-- Row 3 -->
  <rect x="42"  y="112" width="26" height="26" rx="4" fill="#1e2f47" stroke="#2a3f5a" stroke-width="1.5"/>
  <rect x="72"  y="112" width="26" height="26" rx="4" fill="#1e2f47" stroke="#2a3f5a" stroke-width="1.5"/>
  <rect x="102" y="112" width="26" height="26" rx="4" fill="#1e2f47" stroke="#2a3f5a" stroke-width="1.5"/>
  <rect x="132" y="112" width="26" height="26" rx="4" fill="#1e2f47" stroke="#2a3f5a" stroke-width="1.5"/>
  <rect x="162" y="112" width="26" height="26" rx="4" fill="#1e2f47" stroke="#2a3f5a" stroke-width="1.5"/>
  <rect x="192" y="112" width="26" height="26" rx="4" fill="#1e2f47" stroke="#2a3f5a" stroke-width="1.5"/>

  <!-- Placed dominoes -->
  <!-- Red horizontal: row0, cols0-1 -->
  <rect x="42" y="22" width="56" height="26" rx="6" fill="#e84040" stroke="rgba(232,64,64,0.45)" stroke-width="2"/>
  <line x1="70" y1="22" x2="70" y2="48" stroke="rgba(255,255,255,0.35)" stroke-width="2"/>

  <!-- Blue vertical: col2, rows0-1 -->
  <rect x="102" y="22" width="26" height="56" rx="6" fill="#4488ff" stroke="rgba(68,136,255,0.45)" stroke-width="2"/>
  <line x1="102" y1="50" x2="128" y2="50" stroke="rgba(255,255,255,0.35)" stroke-width="2"/>

  <!-- Red vertical: col4, rows0-1 -->
  <rect x="162" y="22" width="26" height="56" rx="6" fill="#e84040" stroke="rgba(232,64,64,0.45)" stroke-width="2"/>
  <line x1="162" y1="50" x2="188" y2="50" stroke="rgba(255,255,255,0.35)" stroke-width="2"/>

  <!-- Blue horizontal: row2, cols0-1 -->
  <rect x="42" y="82" width="56" height="26" rx="6" fill="#4488ff" stroke="rgba(68,136,255,0.45)" stroke-width="2"/>
  <line x1="70" y1="82" x2="70" y2="108" stroke="rgba(255,255,255,0.35)" stroke-width="2"/>

  <!-- Red horizontal: row3, cols3-4 -->
  <rect x="132" y="112" width="56" height="26" rx="6" fill="#e84040" stroke="rgba(232,64,64,0.45)" stroke-width="2"/>
  <line x1="160" y1="112" x2="160" y2="138" stroke="rgba(255,255,255,0.35)" stroke-width="2"/>

  <!-- Blue vertical: col5, rows2-3 -->
  <rect x="192" y="82" width="26" height="56" rx="6" fill="#4488ff" stroke="rgba(68,136,255,0.45)" stroke-width="2"/>
  <line x1="192" y1="110" x2="218" y2="110" stroke="rgba(255,255,255,0.35)" stroke-width="2"/>
</svg>
